# xmcd
# 
# Track frame offsets:
#     150
#     16552
#     29244
#     45073
#     60665
#     77962
#     93586
#     107755
#     125949
#     142142
#     153951
#     171888
#     184697
#     199608
#     215092
# 
# Disc length: 3044
# 
# Revision: 1
# Processed by: cddbd v1.5.2PL0 Copyright (c) Steve Scherf et al.
# Submitted via: fre:ac v1.0.31
# 
DISCID=d20be20f
DTITLE=Tigres Del Norte - 25 Joyas
DYEAR=2007
DGENRE=Norteño
TTITLE0=La Sorpresa
TTITLE1=Detalles
TTITLE2=Cuestión Olvidada
TTITLE3=Mi Fantasía
TTITLE4=En Que Fallé
TTITLE5=Directo Al Corazón
TTITLE6=Señor Locutor
TTITLE7=Lágrimas, Lágrimas Del Corazón
TTITLE8=Regalo Caro
TTITLE9=La Dieta
TTITLE10=Me Haces Falta
TTITLE11=El Celular
TTITLE12=Viva Mi Sinaloa
TTITLE13=Le Compré La Muerte A Mi Hijo
TTITLE14=El Ejemplo
EXTD=
EXTT0=
EXTT1=
EXTT2=
EXTT3=
EXTT4=
EXTT5=
EXTT6=
EXTT7=
EXTT8=
EXTT9=
EXTT10=
EXTT11=
EXTT12=
EXTT13=
EXTT14=
PLAYORDER=
